HIERARCHY
ROOT Hips
{
	OFFSET -0.001795 -0.223333 0.028219
	CHANNELS 6 Xposition Yposition Zposition Zrotation Yrotation Xrotation 
	JOINT LeftUpLeg
	{
		OFFSET 0.069520 -0.091406 -0.006815
		CHANNELS 3 Zrotation Yrotation Xrotation
		JOINT LeftLeg
		{
			OFFSET 0.034277 -0.375199 -0.004496
			CHANNELS 3 Zrotation Yrotation Xrotation
			JOINT LeftFoot
			{
				OFFSET -0.013596 -0.397961 -0.043693
				CHANNELS 3 Zrotation Yrotation Xrotation
				JOINT LeftToe
				{
					OFFSET 0.026358 -0.055791 0.119288
					CHANNELS 3 Zrotation Yrotation Xrotation
					End Site
					{
						OFFSET 0.000000 0.000000 0.000000
					}
				}
			}
		}
	}
	JOINT RightUpLeg
	{
		OFFSET -0.067670 -0.090522 -0.004320
		CHANNELS 3 Zrotation Yrotation Xrotation
		JOINT RightLeg
		{
			OFFSET -0.038290 -0.382569 -0.008850
			CHANNELS 3 Zrotation Yrotation Xrotation
			JOINT RightFoot
			{
				OFFSET 0.015774 -0.398415 -0.042312
				CHANNELS 3 Zrotation Yrotation Xrotation
				JOINT RightToe
				{
					OFFSET -0.025372 -0.048144 0.123348
					CHANNELS 3 Zrotation Yrotation Xrotation
					End Site
					{
						OFFSET 0.000000 0.000000 0.000000
					}
				}
			}
		}
	}
	JOINT Spine
	{
		OFFSET -0.002533 0.108963 -0.026696
		CHANNELS 3 Zrotation Yrotation Xrotation
		JOINT Spine1
		{
			OFFSET 0.005487 0.135180 0.001092
			CHANNELS 3 Zrotation Yrotation Xrotation
			JOINT Spine2
			{
				OFFSET 0.001457 0.052922 0.025425
				CHANNELS 3 Zrotation Yrotation Xrotation
				JOINT Neck
				{
					OFFSET -0.002778 0.213870 -0.042857
					CHANNELS 3 Zrotation Yrotation Xrotation
					JOINT Head
					{
						OFFSET 0.005152 0.064970 0.051349
						CHANNELS 3 Zrotation Yrotation Xrotation
						End Site
						{
							OFFSET 0.000000 0.000000 0.000000
						}
					}
				}
				JOINT LeftShoulder
				{
					OFFSET 0.078845 0.121749 -0.034090
					CHANNELS 3 Zrotation Yrotation Xrotation
					JOINT LeftArm
					{
						OFFSET 0.090977 0.030469 -0.008868
						CHANNELS 3 Zrotation Yrotation Xrotation
						JOINT LeftForeArm
						{
							OFFSET 0.259612 -0.012772 -0.027456
							CHANNELS 3 Zrotation Yrotation Xrotation
							JOINT LeftHand
							{
								OFFSET 0.249234 0.008986 -0.001171
								CHANNELS 3 Zrotation Yrotation Xrotation
								End Site
								{
									OFFSET 0.000000 0.000000 0.000000
								}
							}
						}
					}
				}
				JOINT RightShoulder
				{
					OFFSET -0.081759 0.118833 -0.038615
					CHANNELS 3 Zrotation Yrotation Xrotation
					JOINT RightArm
					{
						OFFSET -0.096012 0.032551 -0.009143
						CHANNELS 3 Zrotation Yrotation Xrotation
						JOINT RightForeArm
						{
							OFFSET -0.253742 -0.013329 -0.021401
							CHANNELS 3 Zrotation Yrotation Xrotation
							JOINT RightHand
							{
								OFFSET -0.255298 0.007772 -0.005559
								CHANNELS 3 Zrotation Yrotation Xrotation
								End Site
								{
									OFFSET 0.000000 0.000000 0.000000
								}
							}
						}
					}
				}
			}
		}
	}
}
MOTION
Frames: 9
Frame Time: 0.050000
0.000000 0.945245 0.000000 -0.599010 -3.666796 10.327742 5.532661 -0.477486 -7.378781 -0.316193 0.245069 -6.466546 1.055904 5.512165 10.678846 0.000000 0.000000 0.000000 -2.970479 0.717888 -7.423894 -1.683344 -0.127050 -5.365749 -0.662904 -6.577609 11.535164 0.000000 0.000000 0.000000 4.658133 0.461484 -7.679136 -2.458660 1.095603 -6.699517 -2.197912 5.010967 4.830062 6.642089 -3.100833 -12.446068 0.000000 0.000000 0.000000 -14.038550 4.942320 -4.243215 -57.306994 -5.580209 -4.161052 -5.460082 -14.042837 1.113068 0.000000 0.000000 0.000000 12.755515 -9.906089 -5.398596 64.312695 2.863027 -4.322117 4.549100 17.371380 1.283902 0.000000 0.000000 0.000000 
0.000120 0.944462 0.000238 -0.730695 -4.535409 11.228838 5.872844 -0.462208 -7.268692 -0.455822 0.282926 -7.261805 1.345134 5.847200 10.467178 0.000000 0.000000 0.000000 -2.996100 0.842169 -8.874544 -1.842992 -0.093710 -4.826358 0.007157 -5.734025 12.408401 0.000000 0.000000 0.000000 5.500802 0.499292 -7.906803 -3.012126 1.292880 -7.164377 -2.547515 6.002874 3.931041 7.528209 -3.611097 -12.426395 0.000000 0.000000 0.000000 -15.244334 5.562649 -4.892913 -56.112591 -5.137577 -4.155249 -5.161825 -14.144338 1.065029 0.000000 0.000000 0.000000 12.691294 -11.375027 -6.039880 64.979902 1.697993 -4.826180 4.928788 18.247134 1.424744 0.000000 0.000000 0.000000 
0.000162 0.944229 0.000276 -0.352200 -4.264697 10.777370 5.485231 -0.471633 -7.207865 -0.260738 0.219902 -5.818260 0.942900 4.913030 9.399327 0.000000 0.000000 0.000000 -3.060791 0.814715 -8.608570 -2.439869 -0.059818 -4.795271 -0.514109 -6.605122 12.190892 0.000000 0.000000 0.000000 5.371576 0.432488 -7.208900 -2.830724 1.217512 -8.005306 -3.037909 5.500274 4.077154 7.712841 -3.987348 -11.163717 0.000000 0.000000 0.000000 -14.770308 4.775130 -4.370440 -56.003565 -4.429375 -4.506043 -4.831656 -13.568918 0.992043 0.000000 0.000000 0.000000 13.502132 -10.269275 -5.667384 64.067873 1.842255 -4.781731 5.013909 17.909144 1.397394 0.000000 0.000000 0.000000 
0.000179 0.944308 0.000318 -0.335703 -4.265163 11.201921 6.118634 -0.462391 -7.409053 -1.044576 0.290795 -6.563943 0.492905 4.387111 10.353129 0.000000 0.000000 0.000000 -3.184166 0.858022 -9.144160 -2.411308 -0.078888 -5.090087 -0.510729 -6.959685 13.288965 0.000000 0.000000 0.000000 5.225300 0.415544 -7.149990 -2.912466 1.255106 -7.391222 -2.796549 5.010538 2.417709 7.695905 -4.134116 -10.200010 0.000000 0.000000 0.000000 -15.152627 5.637303 -4.809828 -56.371560 -4.612185 -4.274378 -3.557690 -12.818781 0.798102 0.000000 0.000000 0.000000 12.489986 -10.519652 -5.706556 64.343476 1.431266 -4.851708 5.777325 18.452224 1.523258 0.000000 0.000000 0.000000 
0.000161 0.944637 0.000338 -0.186598 -4.103077 11.004944 5.805683 -0.472855 -7.367544 -1.006040 0.279291 -6.267227 0.612765 4.557594 10.143217 0.000000 0.000000 0.000000 -3.191096 0.845963 -9.023529 -2.840749 -0.058855 -5.125066 -0.533592 -6.864486 12.938063 0.000000 0.000000 0.000000 4.979624 0.385382 -6.867342 -2.583465 1.131591 -7.168672 -2.863142 4.736044 2.319381 7.335579 -3.797146 -10.776430 0.000000 0.000000 0.000000 -15.170280 5.309728 -4.633798 -56.389278 -4.696117 -4.224827 -3.637650 -12.474053 0.788091 0.000000 0.000000 0.000000 12.267467 -10.160962 -5.518233 64.347149 1.930275 -4.579313 5.726401 18.281932 1.493041 0.000000 0.000000 0.000000 
0.000097 0.945021 0.000479 -0.086468 -4.221625 11.165827 5.849986 -0.474458 -7.428530 -1.297332 0.298518 -6.328005 0.767578 4.855008 10.307541 0.000000 0.000000 0.000000 -3.359871 0.840748 -8.965160 -2.870596 -0.075301 -5.408119 -0.438141 -6.869638 13.451545 0.000000 0.000000 0.000000 4.781210 0.376354 -6.824090 -2.484246 1.089543 -7.359342 -2.865427 4.685895 2.231690 7.248142 -3.745949 -10.761176 0.000000 0.000000 0.000000 -15.734039 5.587431 -4.863775 -56.001518 -4.601882 -4.211744 -3.376884 -12.639600 0.772371 0.000000 0.000000 0.000000 12.265747 -9.940787 -5.429503 64.430734 2.009899 -4.537029 5.765714 18.741723 1.536925 0.000000 0.000000 0.000000 
0.000039 0.945290 0.000663 0.004886 -4.191117 11.104106 5.620733 -0.486800 -7.524776 -1.273305 0.288360 -6.009226 0.962120 5.218972 10.400175 0.000000 0.000000 0.000000 -3.269015 0.833169 -8.855502 -3.118302 -0.067860 -5.478992 -0.288934 -6.555371 13.342718 0.000000 0.000000 0.000000 4.711761 0.365554 -6.717779 -2.524651 1.107154 -7.198446 -2.854385 4.400127 2.163241 7.138128 -3.572538 -11.443540 0.000000 0.000000 0.000000 -15.887263 5.340594 -4.728583 -55.911393 -4.520138 -4.228050 -3.655803 -12.805039 0.818035 0.000000 0.000000 0.000000 12.133246 -9.504761 -5.235428 64.592194 2.189103 -4.466690 5.923984 19.400371 1.612797 0.000000 0.000000 0.000000 
0.000068 0.945569 0.000841 0.076895 -3.876620 11.171999 5.550165 -0.505532 -7.818732 -1.207542 0.269300 -5.494205 0.957608 5.211802 10.271113 0.000000 0.000000 0.000000 -3.241575 0.834661 -8.892839 -3.258679 -0.045387 -5.252726 -0.409479 -6.656299 13.112664 0.000000 0.000000 0.000000 4.733375 0.363318 -6.737216 -2.511133 1.108467 -6.984788 -3.121177 4.278681 1.888764 7.221920 -3.645905 -11.241396 0.000000 0.000000 0.000000 -16.101109 4.867191 -4.565745 -55.628809 -4.357050 -4.247261 -3.636107 -13.347387 0.847148 0.000000 0.000000 0.000000 12.201443 -9.374725 -5.175242 64.770369 2.296652 -4.379417 5.924060 19.981884 1.669764 0.000000 0.000000 0.000000 
0.000137 0.946091 0.000896 0.216942 -3.740075 11.036474 5.355962 -0.517988 -7.931989 -1.109143 0.251902 -5.106141 0.954872 5.246451 10.355583 0.000000 0.000000 0.000000 -3.299916 0.825351 -8.809945 -3.299868 -0.032363 -5.096912 -0.438551 -6.645573 12.980534 0.000000 0.000000 0.000000 4.715750 0.342502 -6.500945 -2.457667 1.089474 -7.039303 -3.260051 4.118919 1.826120 7.143079 -3.567086 -11.409594 0.000000 0.000000 0.000000 -16.226952 4.523246 -4.413781 -55.577519 -4.429523 -4.199876 -3.694583 -13.567291 0.868867 0.000000 0.000000 0.000000 12.302689 -9.047145 -5.044226 64.626105 2.568804 -4.223746 6.076212 20.546533 1.746666 0.000000 0.000000 0.000000 
